<?xml version="1.0" encoding="utf-8"?>
<!-- Generator: Adobe Illustrator 18.0.0, SVG Export Plug-In . SVG Version: 6.00 Build 0)  -->
<!DOCTYPE svg PUBLIC "-//W3C//DTD SVG 1.1//EN" "http://www.w3.org/Graphics/SVG/1.1/DTD/svg11.dtd">
<svg version="1.1" id="Layer_1" xmlns="http://www.w3.org/2000/svg" xmlns:xlink="http://www.w3.org/1999/xlink" x="0px" y="0px"
	 viewBox="0 0 200 200" enable-background="new 0 0 200 200" xml:space="preserve">
<path fill="none" d="M101,0c55.2,0,100,44.8,100,100s-44.8,100-100,100S1,155.2,1,100S45.8,0,101,0z"/>
<path fill="none" d="M56,49.8c12.2,0,22,9.9,22,22s-9.9,22-22,22s-22-9.9-22-22S43.9,49.8,56,49.8z"/>
<path fill="none" d="M117.4,69.4c0,12.2,9.9,22,22,22c12.2,0,22-9.9,22-22c0-12.2-9.9-22-22-22C127.2,47.4,117.4,57.2,117.4,69.4z"
	/>
<path fill="none" d="M102.3,82.7L86.2,100l23,9.2"/>
<path fill="none" d="M63.4,148.3c0,9.9,16.3,16.5,36.5,16.5c20.2,0,36.5-3.8,36.5-16.5c0-11.9-16.3-16.5-36.5-16.5
	C79.7,131.8,63.4,135.8,63.4,148.3z"/>
</svg>
